<svg
  width="128"
  height="128"
  viewBox="0 0 28.310417 31.75"
  xmlns="http://www.w3.org/2000/svg"
>
  <g transform="translate(-90.29818,-132.625)">
    <path
      d="m 99.161721,163.87376 c -3.118307,-1.38269 -2.376311,-6.91975 1.388359,-10.36045 1.37825,-1.25964 1.57084,-9.16435 0.28733,-11.79326 -0.35655,-0.73031 0.12851,-1.68672 0.85547,-1.68672 0.6543,0 1.541,6.40135 1.56802,11.32005 0.001,0.25375 0.33002,0.29631 1.29719,0.16801 1.78541,-0.23684 3.5384,0.39412 5.99822,2.15896 5.49677,3.94375 3.14678,-5.40277 -2.9675,-11.80251 -6.55478,-6.86082 -11.839298,-7.66006 -15.370137,-2.3246 -0.665343,1.0054 -1.204126,1.26163 -1.53322,0.72914 -1.055229,-1.7074 6.365142,-7.26087 9.666897,-7.23479 9.64331,0.0762 18.19605,12.60698 14.29483,20.9437 -0.90735,1.93895 -0.88435,2.06071 0.45935,2.43172 0.81036,0.22375 1.14816,0.18034 1.9831,-0.25485 2.04817,-1.06757 1.54299,0.92911 -0.68047,2.68947 -1.7117,1.35519 -3.04283,1.74235 -4.57845,1.33163 -1.1758,-0.31448 -1.1758,-0.31448 -2.82135,0.94507 -3.12387,2.39107 -7.73831,3.67472 -9.847639,2.73943 z m 8.367439,-4.1651 c 1.92053,-0.86188 1.94848,-0.72312 -0.50481,-2.50627 -3.77545,-2.74415 -3.53703,-2.69306 -3.44469,-0.73824 0.1235,2.61452 -0.86982,2.5382 -1.20773,-0.0928 -0.24582,-1.91395 -0.58319,-2.21009 -1.53573,-1.34805 -2.846142,2.57572 2.71656,6.46986 6.69296,4.68536 z"
    />
  </g>
  <style>
    path { fill: #000; }
    @media (prefers-color-scheme: dark) {
        path { fill: #FFF; }
    }
  </style>
</svg>
